<svg width="759" height="138" viewBox="0 0 759 138" fill="none" xmlns="http://www.w3.org/2000/svg">
<g opacity="0.7">
<mask id="path-1-outside-1_418_1145" maskUnits="userSpaceOnUse" x="-1" y="-1" width="762" height="140" fill="black">
<rect fill="white" x="-1" y="-1" width="762" height="140"/>
<path d="M43.1141 136H0.914062L58.7141 2H112.514L170.514 136H127.314L117.114 111.2H53.5141L43.1141 136ZM75.5141 58.6L67.7141 77.4H103.314L95.5141 58.6L86.7141 36H84.1141L75.5141 58.6ZM266.339 136H176.539V2H261.739C290.739 2 305.139 13.4 305.139 34.4C305.139 51.6 296.139 63.8 271.739 64.8V66.8C298.539 67.8 311.339 80.2 311.339 98.8C311.339 121.4 298.339 136 266.339 136ZM213.939 35.8V52.8H257.739C265.339 52.8 267.539 50.6 267.539 44.4C267.539 38.2 264.539 35.8 256.739 35.8H213.939ZM213.939 83.6V102.2H261.539C270.539 102.2 273.339 100.4 273.339 92.8C273.339 85.4 270.739 83.6 261.539 83.6H213.939ZM393.513 138C346.913 138 319.313 110.8 319.313 69C319.313 27.2 346.913 -1.43051e-06 393.513 -1.43051e-06C441.313 -1.43051e-06 468.513 27.2 468.513 69C468.513 110.8 441.313 138 393.513 138ZM393.513 102C420.713 102 428.513 95.6 428.513 69C428.513 42.4 420.713 36 393.513 36C366.313 36 359.313 42.4 359.313 69C359.313 95.6 366.313 102 393.513 102ZM548.139 138C501.339 138 479.739 115.4 479.739 79.8V2H517.339V76.8C517.339 95.8 522.739 101.6 548.139 101.6C573.539 101.6 578.939 95.8 578.939 76.8V2H616.539V79.8C616.539 115.4 594.939 138 548.139 138ZM711.805 136H674.205V35.8H626.805V2H759.005V35.8H711.805V136Z"/>
</mask>
<path d="M43.1141 136V137H43.7791L44.0363 136.387L43.1141 136ZM0.914062 136L-0.00415039 135.604L-0.606354 137H0.914062V136ZM58.7141 2V1H58.0563L57.7958 1.60393L58.7141 2ZM112.514 2L113.432 1.60278L113.171 1H112.514V2ZM170.514 136V137H172.037L171.432 135.603L170.514 136ZM127.314 136L126.389 136.38L126.644 137H127.314V136ZM117.114 111.2L118.039 110.82L117.784 110.2H117.114V111.2ZM53.5141 111.2V110.2H52.8491L52.5919 110.813L53.5141 111.2ZM75.5141 58.6L76.4377 58.9832L76.4434 58.9695L76.4487 58.9557L75.5141 58.6ZM67.7141 77.4L66.7904 77.0168L66.2165 78.4H67.7141V77.4ZM103.314 77.4V78.4H104.812L104.238 77.0168L103.314 77.4ZM95.5141 58.6L94.5822 58.9628L94.5862 58.9731L94.5904 58.9832L95.5141 58.6ZM86.7141 36L87.6459 35.6372L87.3978 35H86.7141V36ZM84.1141 36V35H83.4247L83.1794 35.6443L84.1141 36ZM43.1141 135H0.914062V137H43.1141V135ZM1.83228 136.396L59.6323 2.39606L57.7958 1.60393L-0.00415039 135.604L1.83228 136.396ZM58.7141 3H112.514V1H58.7141V3ZM111.596 2.39722L169.596 136.397L171.432 135.603L113.432 1.60278L111.596 2.39722ZM170.514 135H127.314V137H170.514V135ZM128.239 135.62L118.039 110.82L116.189 111.58L126.389 136.38L128.239 135.62ZM117.114 110.2H53.5141V112.2H117.114V110.2ZM52.5919 110.813L42.1919 135.613L44.0363 136.387L54.4362 111.587L52.5919 110.813ZM74.5904 58.2168L66.7904 77.0168L68.6377 77.7832L76.4377 58.9832L74.5904 58.2168ZM67.7141 78.4H103.314V76.4H67.7141V78.4ZM104.238 77.0168L96.4377 58.2168L94.5904 58.9832L102.39 77.7832L104.238 77.0168ZM96.4459 58.2372L87.6459 35.6372L85.7822 36.3628L94.5822 58.9628L96.4459 58.2372ZM86.7141 35H84.1141V37H86.7141V35ZM83.1794 35.6443L74.5794 58.2443L76.4487 58.9557L85.0487 36.3557L83.1794 35.6443ZM176.539 136H175.539V137H176.539V136ZM176.539 2V1H175.539V2H176.539ZM271.739 64.8L271.698 63.8008L270.739 63.8401V64.8H271.739ZM271.739 66.8H270.739V67.7634L271.702 67.7993L271.739 66.8ZM213.939 35.8V34.8H212.939V35.8H213.939ZM213.939 52.8H212.939V53.8H213.939V52.8ZM213.939 83.6V82.6H212.939V83.6H213.939ZM213.939 102.2H212.939V103.2H213.939V102.2ZM266.339 135H176.539V137H266.339V135ZM177.539 136V2H175.539V136H177.539ZM176.539 3H261.739V1H176.539V3ZM261.739 3C276.134 3 286.731 5.83352 293.71 11.122C300.64 16.3737 304.139 24.1516 304.139 34.4H306.139C306.139 23.6484 302.438 15.2263 294.918 9.52798C287.447 3.86648 276.344 1 261.739 1V3ZM304.139 34.4C304.139 42.8311 301.936 49.8903 296.88 54.9696C291.819 60.0548 283.749 63.307 271.698 63.8008L271.78 65.7992C284.13 65.293 292.759 61.9451 298.298 56.3804C303.842 50.8097 306.139 43.1689 306.139 34.4H304.139ZM270.739 64.8V66.8H272.739V64.8H270.739ZM271.702 67.7993C284.969 68.2944 294.622 71.6075 300.943 76.9629C307.235 82.2948 310.339 89.7474 310.339 98.8H312.339C312.339 89.2526 309.043 81.2052 302.236 75.4371C295.456 69.6925 285.309 66.3056 271.776 65.8007L271.702 67.7993ZM310.339 98.8C310.339 109.908 307.15 118.898 300.173 125.129C293.176 131.379 282.206 135 266.339 135V137C282.472 137 294.003 133.321 301.505 126.621C309.028 119.902 312.339 110.292 312.339 98.8H310.339ZM212.939 35.8V52.8H214.939V35.8H212.939ZM213.939 53.8H257.739V51.8H213.939V53.8ZM257.739 53.8C261.569 53.8 264.355 53.2612 266.151 51.6745C267.988 50.0517 268.539 47.5682 268.539 44.4H266.539C266.539 47.4318 265.99 49.1483 264.827 50.1755C263.623 51.2388 261.509 51.8 257.739 51.8V53.8ZM268.539 44.4C268.539 41.1529 267.751 38.6379 265.687 36.993C263.685 35.3972 260.692 34.8 256.739 34.8V36.8C260.587 36.8 262.993 37.4028 264.441 38.557C265.827 39.6621 266.539 41.4471 266.539 44.4H268.539ZM256.739 34.8H213.939V36.8H256.739V34.8ZM212.939 83.6V102.2H214.939V83.6H212.939ZM213.939 103.2H261.539V101.2H213.939V103.2ZM261.539 103.2C266.02 103.2 269.299 102.773 271.423 101.143C273.638 99.4438 274.339 96.6677 274.339 92.8H272.339C272.339 96.5323 271.64 98.4562 270.205 99.5566C268.68 100.727 266.058 101.2 261.539 101.2V103.2ZM274.339 92.8C274.339 89.0428 273.693 86.3084 271.496 84.6303C269.396 83.026 266.115 82.6 261.539 82.6V84.6C266.163 84.6 268.782 85.074 270.282 86.2197C271.685 87.2916 272.339 89.1572 272.339 92.8H274.339ZM261.539 82.6H213.939V84.6H261.539V82.6ZM393.513 137C370.405 137 352.123 130.259 339.624 118.448C327.132 106.643 320.312 89.6732 320.312 69H318.312C318.312 90.1268 325.293 107.657 338.251 119.902C351.202 132.141 370.02 139 393.513 139V137ZM320.312 69C320.312 48.3268 327.132 31.3572 339.624 19.5518C352.123 7.74101 370.405 1 393.513 1V-1C370.02 -1 351.202 5.85899 338.251 18.0982C325.293 30.3428 318.312 47.8732 318.312 69H320.312ZM393.513 1C417.226 1 435.707 7.74445 448.252 19.5532C460.791 31.3558 467.513 48.3229 467.513 69H469.513C469.513 47.8771 462.634 30.3442 449.623 18.0968C436.618 5.85555 417.599 -1 393.513 -1V1ZM467.513 69C467.513 89.6771 460.791 106.644 448.252 118.447C435.707 130.256 417.226 137 393.513 137V139C417.599 139 436.618 132.144 449.623 119.903C462.634 107.656 469.513 90.1229 469.513 69H467.513ZM393.513 103C407.103 103 416.226 101.424 421.89 96.2107C427.58 90.9723 429.513 82.3188 429.513 69H427.513C427.513 82.2812 425.545 90.1277 420.535 94.7393C415.499 99.3758 407.122 101 393.513 101V103ZM429.513 69C429.513 55.6812 427.58 47.0277 421.89 41.7893C416.226 36.5758 407.103 35 393.513 35V37C407.122 37 415.499 38.6242 420.535 43.2607C425.545 47.8723 427.513 55.7188 427.513 69H429.513ZM393.513 35C379.927 35 370.989 36.5735 365.521 41.8023C360.039 47.0455 358.312 55.7009 358.312 69H360.312C360.312 55.6991 362.086 47.8545 366.904 43.2477C371.736 38.6265 379.898 37 393.513 37V35ZM358.312 69C358.312 82.2991 360.039 90.9545 365.521 96.1977C370.989 101.426 379.927 103 393.513 103V101C379.898 101 371.736 99.3735 366.904 94.7523C362.086 90.1455 360.312 82.3009 360.312 69H358.312ZM479.739 2V1H478.739V2H479.739ZM517.339 2H518.339V1H517.339V2ZM578.939 2V1H577.939V2H578.939ZM616.539 2H617.539V1H616.539V2ZM548.139 137C524.886 137 508.061 131.385 497.057 121.506C486.07 111.642 480.739 97.3939 480.739 79.8H478.739C478.739 97.8061 484.208 112.658 495.721 122.994C507.217 133.315 524.592 139 548.139 139V137ZM480.739 79.8V2H478.739V79.8H480.739ZM479.739 3H517.339V1H479.739V3ZM516.339 2V76.8H518.339V2H516.339ZM516.339 76.8C516.339 86.3183 517.67 92.9482 522.568 97.0887C527.401 101.174 535.454 102.6 548.139 102.6V100.6C535.424 100.6 528.077 99.1261 523.86 95.5613C519.708 92.0518 518.339 86.2817 518.339 76.8H516.339ZM548.139 102.6C560.824 102.6 568.877 101.174 573.71 97.0887C578.608 92.9482 579.939 86.3183 579.939 76.8H577.939C577.939 86.2817 576.57 92.0518 572.419 95.5613C568.201 99.1261 560.854 100.6 548.139 100.6V102.6ZM579.939 76.8V2H577.939V76.8H579.939ZM578.939 3H616.539V1H578.939V3ZM615.539 2V79.8H617.539V2H615.539ZM615.539 79.8C615.539 97.3939 610.208 111.642 599.221 121.506C588.217 131.385 571.392 137 548.139 137V139C571.686 139 589.061 133.315 600.557 122.994C612.07 112.658 617.539 97.806 617.539 79.8H615.539ZM711.805 136V137H712.805V136H711.805ZM674.205 136H673.205V137H674.205V136ZM674.205 35.8H675.205V34.8H674.205V35.8ZM626.805 35.8H625.805V36.8H626.805V35.8ZM626.805 2V1H625.805V2H626.805ZM759.005 2H760.005V1H759.005V2ZM759.005 35.8V36.8H760.005V35.8H759.005ZM711.805 35.8V34.8H710.805V35.8H711.805ZM711.805 135H674.205V137H711.805V135ZM675.205 136V35.8H673.205V136H675.205ZM674.205 34.8H626.805V36.8H674.205V34.8ZM627.805 35.8V2H625.805V35.8H627.805ZM626.805 3H759.005V1H626.805V3ZM758.005 2V35.8H760.005V2H758.005ZM759.005 34.8H711.805V36.8H759.005V34.8ZM710.805 35.8V136H712.805V35.8H710.805Z" fill="white" fill-opacity="0.15" mask="url(#path-1-outside-1_418_1145)"/>
</g>
</svg>
